<svg width="259" height="258" xmlns="http://www.w3.org/2000/svg" xmlns:xlink="http://www.w3.org/1999/xlink" xml:space="preserve" overflow="hidden"><g transform="translate(-237 -129)"><path d="M237 172.001C237 148.252 256.252 129 280.001 129L452.999 129C476.748 129 496 148.252 496 172.001L496 343.999C496 367.748 476.748 387 452.999 387L280.001 387C256.252 387 237 367.748 237 343.999Z" fill="#FFFFFF" fill-rule="evenodd"/><g><g><g><path d="M76.2609 22.1786 113.822 22.1786 111.993 32.9811 87.7327 32.9811 85.9063 44.2648 107.776 44.2648 105.949 55.1023 84.0799 55.1023 80.4238 77.214 67.1256 77.214Z" fill="#333333" transform="matrix(1 0 0 1.00392 239 202)"/><path d="M114.431 35.9359 127.57 35.9359 120.704 77.2044 107.565 77.2044ZM116.025 24.8147C116.567 21.3562 119.981 18.5544 123.675 18.5544 127.369 18.5544 130.002 21.3562 129.543 24.8147 129.084 28.2731 125.648 31.1004 121.941 31.1004 118.234 31.1004 115.521 28.2508 116.025 24.8147Z" fill="#333333" transform="matrix(1 0 0 1.00392 239 202)"/><path d="M134.388 22.1786 147.524 22.1786 144.113 43.0026 144.394 43.0026C146.542 39.2126 150.817 35.4004 157.345 35.4004 165.97 35.4004 172.645 42.0368 170.212 56.5972 167.902 70.6478 159.305 77.7941 150.169 77.7941 143.938 77.7941 140.821 74.3293 139.855 70.5139L139.342 70.5139 138.267 77.2076 125.269 77.2076ZM147.365 67.575C152.2 67.575 155.652 63.2496 156.713 56.5877 157.775 49.9258 155.853 45.6769 150.976 45.6769 146.166 45.6769 142.647 49.8429 141.573 56.5877 140.486 63.2591 142.555 67.575 147.365 67.575Z" fill="#333333" transform="matrix(1 0 0 1.00392 239 202)"/><path d="M171.739 56.7375C173.859 43.9492 183.316 35.4067 195.757 35.4067 207.471 35.4067 214.458 42.9006 212.201 56.4697L211.688 59.7465 184.206 59.7465 184.123 60.231C183.291 65.4712 185.761 68.5185 190.893 68.5185 194.307 68.5185 197.268 67.0682 198.766 64.3014L210.748 64.6489C207.822 72.7643 199.949 78.0013 189.073 78.0013 176.116 77.9822 169.508 69.9242 171.739 56.7375ZM200.701 52.1156C201.374 47.8986 198.846 44.8896 194.549 44.8896 190.303 44.8896 186.542 48.0324 185.602 52.1156Z" fill="#333333" transform="matrix(1 0 0 1.00392 239 202)"/><path d="M218.599 35.9359 231.349 35.9359 230.074 43.4584 230.504 43.4584C232.949 38.0046 237.003 35.3812 241.517 35.3812 242.731 35.3895 243.94 35.5393 245.119 35.8275L243.184 47.2738C241.976 46.818 239.745 46.5757 238.106 46.5757 233.459 46.5757 229.427 49.8812 228.569 54.7963L224.859 77.2044 211.723 77.2044Z" fill="#333333" transform="matrix(1 0 0 1.00392 239 202)"/><path d="M68.1392 36.7869 25.2641 36.7869 21.8344 41.6542 67.3455 41.6287Z" fill="#00ACD7" transform="matrix(1 0 0 1.00392 239 202)"/><path d="M66.6251 46.8754 11.1403 46.8754 7.61175 51.7236 65.8314 51.6821Z" fill="#00ACD7" transform="matrix(1 0 0 1.00392 239 202)"/><path d="M65.1111 56.9606 41.4056 56.9606 38.2181 61.8279 64.3174 61.8088Z" fill="#00ACD7" transform="matrix(1 0 0 1.00392 239 202)"/></g></g></g></g></svg>