<svg width="315" height="315" xmlns="http://www.w3.org/2000/svg" xmlns:xlink="http://www.w3.org/1999/xlink" xml:space="preserve" overflow="hidden"><g transform="translate(-406 -279)"><path d="M406 331.501C406 302.506 429.506 279 458.501 279L668.499 279C697.495 279 721 302.506 721 331.501L721 541.499C721 570.495 697.495 594 668.499 594L458.501 594C429.506 594 406 570.495 406 541.499Z" fill="#242938" fill-rule="evenodd"/><g><g><g><path d="M86.13 25.0488 128.552 25.0488 126.486 37.2492 99.0864 37.2492 97.0236 49.9932 121.723 49.9932 119.66 62.2332 94.9608 62.2332 90.8316 87.2064 75.8124 87.2064Z" fill="#FFFFFF" transform="matrix(1.00694 0 0 1 418 376)"/><path d="M129.24 40.5864 144.079 40.5864 136.325 87.1956 121.486 87.1956ZM131.04 28.026C131.652 24.12 135.508 20.9556 139.68 20.9556 143.852 20.9556 146.826 24.12 146.308 28.026 145.789 31.932 141.908 35.1252 137.722 35.1252 133.535 35.1252 130.471 31.9068 131.04 28.026Z" fill="#FFFFFF" transform="matrix(1.00694 0 0 1 418 376)"/><path d="M151.78 25.0488 166.615 25.0488 162.763 48.5676 163.08 48.5676C165.506 44.2872 170.334 39.9816 177.707 39.9816 187.448 39.9816 194.987 47.4768 192.24 63.9216 189.63 79.7904 179.921 87.8616 169.603 87.8616 162.565 87.8616 159.044 83.9484 157.954 79.6392L157.374 79.6392 156.161 87.1992 141.48 87.1992ZM166.435 76.32C171.896 76.32 175.795 71.4348 176.994 63.9108 178.193 56.3868 176.022 51.588 170.514 51.588 165.082 51.588 161.107 56.2932 159.894 63.9108 158.666 71.4456 161.003 76.32 166.435 76.32Z" fill="#FFFFFF" transform="matrix(1.00694 0 0 1 418 376)"/><path d="M193.964 64.08C196.358 49.6368 207.04 39.9888 221.09 39.9888 234.32 39.9888 242.212 48.4524 239.663 63.7776L239.083 67.4784 208.044 67.4784 207.95 68.0256C207.011 73.944 209.801 77.3856 215.597 77.3856 219.452 77.3856 222.797 75.7476 224.489 72.6228L238.021 73.0152C234.716 82.1808 225.824 88.0956 213.541 88.0956 198.907 88.074 191.444 78.9732 193.964 64.08ZM226.674 58.86C227.434 54.0972 224.579 50.6988 219.726 50.6988 214.931 50.6988 210.683 54.2484 209.621 58.86Z" fill="#FFFFFF" transform="matrix(1.00694 0 0 1 418 376)"/><path d="M246.888 40.5864 261.288 40.5864 259.848 49.0824 260.334 49.0824C263.095 42.9228 267.674 39.96 272.772 39.96 274.143 39.9693 275.508 40.1385 276.84 40.464L274.655 53.3916C273.29 52.8768 270.77 52.6032 268.92 52.6032 263.671 52.6032 259.117 56.3364 258.149 61.8876L253.958 87.1956 239.123 87.1956Z" fill="#FFFFFF" transform="matrix(1.00694 0 0 1 418 376)"/><path d="M76.9572 41.5476 28.5336 41.5476 24.66 47.0448 76.0608 47.016Z" fill="#00ACD7" transform="matrix(1.00694 0 0 1 418 376)"/><path d="M75.2472 52.9416 12.582 52.9416 8.5968 58.4172 74.3508 58.3704Z" fill="#00ACD7" transform="matrix(1.00694 0 0 1 418 376)"/><path d="M73.5372 64.332 46.764 64.332 43.164 69.8292 72.6408 69.8076Z" fill="#00ACD7" transform="matrix(1.00694 0 0 1 418 376)"/></g></g></g></g></svg>